<?xml version="1.0" encoding="utf-8"?>
<!-- Generator: Adobe Illustrator 23.0.1, SVG Export Plug-In . SVG Version: 6.00 Build 0)  -->
<svg version="1.1" id="Layer_1" xmlns="http://www.w3.org/2000/svg" xmlns:xlink="http://www.w3.org/1999/xlink" x="0px" y="0px"
	 viewBox="0 0 16 16" style="enable-background:new 0 0 16 16;" xml:space="preserve">
<style type="text/css">
	.White{fill:#FFFFFF;}
	.Red{fill:#D11C1C;}
	.Black{fill:#727272;}
	.Blue{fill:#1177D7;}
	.Yellow{fill:#FFB115;}
	.Green{fill:#039C23;}
</style>
<path class="Green" d="M0,6h2c0.6,0,1,0.4,1,1v6c0,0.6-0.4,1-1,1H0V6z M6,15l5.7,0c0.8,0,1.5-0.5,1.8-1.2l2.3-5.4
	C15.9,8.1,16,7.9,16,7.6V6c0-0.6-0.4-1-1-1H9l1.1-3.7c0.1-0.4,0-0.8-0.2-1l0,0c-0.3-0.3-0.8-0.3-1.1,0L4.6,4.4C4.2,4.8,4,5.3,4,5.8
	V13C4,14.1,4.9,15,6,15z"/>
</svg>
