<?xml version="1.0" encoding="utf-8"?>
<!-- Generator: Adobe Illustrator 23.0.1, SVG Export Plug-In . SVG Version: 6.00 Build 0)  -->
<svg version="1.1" id="Layer_1" xmlns="http://www.w3.org/2000/svg" xmlns:xlink="http://www.w3.org/1999/xlink" x="0px" y="0px"
	 viewBox="0 0 16 16" style="enable-background:new 0 0 16 16;" xml:space="preserve">
<style type="text/css">
	.White{fill:#FFFFFF;}
	.Red{fill:#D11C1C;}
	.Black{fill:#727272;}
	.Blue{fill:#1177D7;}
	.Yellow{fill:#FFB115;}
	.Green{fill:#039C23;}
</style>
<path class="Green" d="M8,0C3.6,0,0,3.6,0,8s3.6,8,8,8s8-3.6,8-8S12.4,0,8,0z M8,14c-3.3,0-6-2.7-6-6s2.7-6,6-6s6,2.7,6,6
	S11.3,14,8,14z M7,5.5C7,6.3,6.3,7,5.5,7S4,6.3,4,5.5S4.7,4,5.5,4S7,4.7,7,5.5z M12,5.5C12,6.3,11.3,7,10.5,7S9,6.3,9,5.5
	S9.7,4,10.5,4S12,4.7,12,5.5z M10.9,8c0.7,0,1.2,0.6,0.9,1.3C11.3,10.9,9.8,12,8,12c-1.8,0-3.3-1.1-3.8-2.7C4,8.6,4.5,8,5.1,8h0
	c0.4,0,0.8,0.2,1,0.6C6.4,9.4,7.1,10,8,10c0.9,0,1.6-0.6,1.9-1.4C10,8.2,10.4,8,10.9,8L10.9,8z"/>
</svg>
