<?xml version="1.0" encoding="utf-8"?>
<!-- Generator: Adobe Illustrator 23.0.1, SVG Export Plug-In . SVG Version: 6.00 Build 0)  -->
<svg version="1.1" id="Layer_1" xmlns="http://www.w3.org/2000/svg" xmlns:xlink="http://www.w3.org/1999/xlink" x="0px" y="0px"
	 viewBox="0 0 16 16" style="enable-background:new 0 0 16 16;" xml:space="preserve">
<style type="text/css">
	.White{fill:#FFFFFF;}
	.Red{fill:#D11C1C;}
	.Black{fill:#727272;}
	.Blue{fill:#1177D7;}
	.Yellow{fill:#FFB115;}
	.Green{fill:#039C23;}
</style>
<path class="Red" d="M15,0H1C0.5,0,0,0.5,0,1v14c0,0.5,0.5,1,1,1h14c0.5,0,1-0.5,1-1V1C16,0.5,15.5,0,15,0z M14,14H2V2h12V14z"/>
<polygon class="Red" points="13,4.4 11.6,3 8,6.6 4.4,3 3,4.4 6.6,8 3,11.6 4.4,13 8,9.4 11.6,13 13,11.6 9.4,8 "/>
</svg>
