<?xml version="1.0" encoding="utf-8"?>
<!-- Generator: Adobe Illustrator 23.0.1, SVG Export Plug-In . SVG Version: 6.00 Build 0)  -->
<svg version="1.1" id="Layer_1" xmlns="http://www.w3.org/2000/svg" xmlns:xlink="http://www.w3.org/1999/xlink" x="0px" y="0px"
	 viewBox="0 0 16 16" style="enable-background:new 0 0 16 16;" xml:space="preserve">
<style type="text/css">
	.White{fill:#FFFFFF;}
	.Red{fill:#D11C1C;}
	.Black{fill:#727272;}
	.Blue{fill:#1177D7;}
	.Yellow{fill:#FFB115;}
	.Green{fill:#039C23;}
</style>
<path class="Red" d="M16,10h-2c-0.6,0-1-0.4-1-1V3c0-0.6,0.4-1,1-1h2V10z M10,1L4.3,1C3.5,1,2.8,1.5,2.5,2.2L0.2,7.6
	C0.1,7.9,0,8.1,0,8.4V10c0,0.6,0.4,1,1,1h6l-1.1,3.7c-0.1,0.4,0,0.8,0.2,1l0,0c0.3,0.3,0.8,0.3,1.1,0l4.2-4.2
	c0.4-0.4,0.6-0.9,0.6-1.4V3C12,1.9,11.1,1,10,1z"/>
</svg>
