<?xml version="1.0" encoding="utf-8"?>
<!-- Generator: Adobe Illustrator 23.0.1, SVG Export Plug-In . SVG Version: 6.00 Build 0)  -->
<svg version="1.1" id="Layer_1" xmlns="http://www.w3.org/2000/svg" xmlns:xlink="http://www.w3.org/1999/xlink" x="0px" y="0px"
	 viewBox="0 0 32 32" style="enable-background:new 0 0 32 32;" xml:space="preserve">
<style type="text/css">
	.Black{fill:#737374;}
	.st0{opacity:0.5;}
	.st1{opacity:0.25;}
</style>
<g class="st0">
	<polygon class="Black" points="20,25 10,15 6,19 6,25 	"/>
</g>
<g class="st1">
	<polygon class="Black" points="22,25 19,22 21,20 26,25 	"/>
</g>
<path class="Black" d="M29,5H3C2.5,5,2,5.5,2,6v22c0,0.5,0.5,1,1,1h26c0.5,0,1-0.5,1-1V6C30,5.5,29.5,5,29,5z M28,27H4V7h24V27z
	 M25.8,17.1c0.3,0.3,0.3,0.6,0,0.9l-0.9,0.9c-0.3,0.3-0.6,0.3-0.9,0L21,15.7l-3.1,3.1c-0.3,0.3-0.6,0.3-0.9,0l-0.9-0.9
	c-0.3-0.3-0.3-0.6,0-0.9l3.1-3.1l-3.1-3.1c-0.3-0.3-0.3-0.6,0-0.9l0.9-0.9c0.3-0.3,0.6-0.3,0.9,0l3.1,3.1l3.1-3.1
	c0.3-0.3,0.6-0.3,0.9,0l0.9,0.9c0.3,0.3,0.3,0.6,0,0.9L22.8,14L25.8,17.1z"/>
</svg>
