<?xml version="1.0" encoding="utf-8"?>
<!-- Generator: Adobe Illustrator 21.1.0, SVG Export Plug-In . SVG Version: 6.00 Build 0)  -->
<svg version="1.1" id="Layer_1" xmlns="http://www.w3.org/2000/svg" xmlns:xlink="http://www.w3.org/1999/xlink" x="0px" y="0px"
	 viewBox="0 0 32 32" style="enable-background:new 0 0 32 32;" xml:space="preserve">
<style type="text/css">
	.Yellow{fill:#FFB115;}
	.st0{fill:#FFB115;}
</style>
<path class="Yellow" d="M32,16H12L6,26h20L32,16z"/>
<g>
	<g>
		<path class="Yellow" d="M4.2,25.2l5.5-10c0.3-0.7,1-1.2,1.8-1.2H26v-3c0-0.6-0.4-1-1-1H14V7c0-0.6-0.4-1-1-1H5C4.4,6,4,6.5,4,7v18
			c0,0.2,0,0.3,0.1,0.4C4.1,25.4,4.2,25.3,4.2,25.2z"/>
	</g>
	<g>
		<path class="Yellow" d="M4.2,25.2l5.5-10c0.3-0.7,1-1.2,1.8-1.2H26v-3c0-0.6-0.4-1-1-1H14V7c0-0.6-0.4-1-1-1H5C4.4,6,4,6.5,4,7v18
			c0,0.2,0,0.3,0.1,0.4C4.1,25.4,4.2,25.3,4.2,25.2z"/>
	</g>
</g>
</svg>
